<svg xmlns="http://www.w3.org/2000/svg" width="260" height="260" viewBox="0 0 260 260">
    <g fill="none" fill-rule="nonzero">
        <path fill="#FFF" fill-opacity=".6" d="M155.774 81.626l-30.182-61.609-87.948 218.287 128.813-58.839-87.496 4.013 76.813-101.852"/>
        <path fill="#FFF" fill-opacity=".6" d="M223.827 238.53L159.448 89.935l-35.382 47.535 99.76 101.06"/>
        <path fill="#FFF" fill-opacity=".3" d="M37.644 238.304L141.192 51.896l-15.6-31.879-87.948 218.287M223.827 238.53L141.87 113.56l17.578-23.625 64.379 148.595"/>
        <path fill="#FFF" d="M78.961 183.478l11.53-40.243 50.7-91.34-15.6-31.878 30.183 61.609-76.813 101.852"/>
        <path fill="#FFF" fill-opacity=".6" d="M90.492 143.235l35.1-123.218 15.6 31.879-50.7 91.339"/>
        <path fill="#FFF" d="M37.644 238.304l128.135-58.556.113.113-128.248 58.443"/>
        <path fill="#FFF" d="M37.644 238.304l20.291-36.513 107.787-22.1.057.057-128.135 58.556"/>
        <path fill="#357FB6" d="M165.909 179.884l-.187-.187.311-.062.187.124-.311.125"/>
        <path fill="#FFF" fill-opacity=".6" d="M37.644 238.304l14.187-35.27 6.104-1.243-20.291 36.513"/>
        <path fill="#FFF" d="M223.827 238.53l-57.653-58.782.622-.283-.791.17-.17-.17-2.317-32.895 60.309 91.96"/>
        <path fill="#FFF" fill-opacity=".6" d="M223.827 238.53l-60.31-91.96-4.069-56.635 64.379 148.595"/>
        <path fill="#345394" d="M166.174 179.776l-.17-.124.792-.187-.622.311"/>
    </g>
</svg>
